<svg width="40" height="44" viewBox="0 0 40 44" fill="none" xmlns="http://www.w3.org/2000/svg">
<path d="M9 4C7.5 4 6.29167 4.83333 5.375 6.5C4.45833 8.16667 4 10 4 12C4 14.1 4.29167 15.9583 4.875 17.575C5.45833 19.1917 6 20.4 6.5 21.2L12 20.1C12.4333 19.0333 12.875 17.8167 13.325 16.45C13.775 15.0833 14 13.6 14 12C14 10 13.5417 8.16667 12.625 6.5C11.7083 4.83333 10.5 4 9 4ZM11.75 30C12.3833 30 12.9167 29.7667 13.35 29.3C13.7833 28.8333 14 28.1833 14 27.35C14 26.7833 13.8667 26.2 13.6 25.6C13.3333 25 13.0667 24.4667 12.8 24L8 25C8 26.3333 8.29167 27.5 8.875 28.5C9.45833 29.5 10.4167 30 11.75 30ZM31 14C29.5 14 28.2917 14.8333 27.375 16.5C26.4583 18.1667 26 20 26 22C26 23.6 26.225 25.075 26.675 26.425C27.125 27.775 27.5667 29 28 30.1L33.5 31.2C34 30.4 34.5417 29.2 35.125 27.6C35.7083 26 36 24.1333 36 22C36 20 35.5417 18.1667 34.625 16.5C33.7083 14.8333 32.5 14 31 14ZM28.25 40C29.5833 40 30.5417 39.5 31.125 38.5C31.7083 37.5 32 36.3333 32 35L27.2 34C26.9333 34.4667 26.6667 35 26.4 35.6C26.1333 36.2 26 36.7833 26 37.35C26 38.0167 26.2083 38.625 26.625 39.175C27.0417 39.725 27.5833 40 28.25 40ZM11.75 34C9.18333 34 7.23333 33.05 5.9 31.15C4.56667 29.25 3.93333 27.1167 4 24.75L3.1 23.4C2.73333 22.8333 2.125 21.55 1.275 19.55C0.425 17.55 0 15.0333 0 12C0 8.56667 0.85 5.70833 2.55 3.425C4.25 1.14167 6.4 0 9 0C11.8333 0 14.0417 1.25833 15.625 3.775C17.2083 6.29167 18 9.03333 18 12C18 13.9333 17.7333 15.7167 17.2 17.35C16.6667 18.9833 16.2 20.3 15.8 21.3L16.2 21.95C16.4667 22.4167 16.8333 23.1583 17.3 24.175C17.7667 25.1917 18 26.25 18 27.35C18 29.25 17.4083 30.8333 16.225 32.1C15.0417 33.3667 13.55 34 11.75 34ZM28.25 44C26.45 44 24.9583 43.3667 23.775 42.1C22.5917 40.8333 22 39.25 22 37.35C22 36.25 22.2333 35.1917 22.7 34.175C23.1667 33.1583 23.5333 32.4167 23.8 31.95L24.2 31.3C23.8 30.3 23.3333 28.9833 22.8 27.35C22.2667 25.7167 22 23.9333 22 22C22 19.0333 22.7917 16.2917 24.375 13.775C25.9583 11.2583 28.1667 10 31 10C33.6 10 35.75 11.1417 37.45 13.425C39.15 15.7083 40 18.5667 40 22C40 25.0333 39.575 27.5417 38.725 29.525C37.875 31.5083 37.2667 32.7833 36.9 33.35L36 34.75C36.0333 37.1167 35.3917 39.25 34.075 41.15C32.7583 43.05 30.8167 44 28.25 44Z" fill="#FEFCFF"/>
</svg>
