<svg width="56" height="56" viewBox="0 0 56 56" fill="none" xmlns="http://www.w3.org/2000/svg">
<rect width="56" height="56" rx="16" fill="#EFF6FF"/>
<path d="M26.0615 32.375C26.5615 32.875 27.2073 33.1198 27.999 33.1094C28.7906 33.099 29.374 32.8125 29.749 32.25L36.749 21.75L26.249 28.75C25.6865 29.125 25.3896 29.6979 25.3583 30.4688C25.3271 31.2396 25.5615 31.875 26.0615 32.375ZM27.999 18C29.2281 18 30.4104 18.1719 31.5458 18.5156C32.6813 18.8594 33.749 19.375 34.749 20.0625L32.374 21.5625C31.6865 21.2083 30.9729 20.9427 30.2333 20.7656C29.4938 20.5885 28.749 20.5 27.999 20.5C25.2281 20.5 22.8688 21.474 20.9208 23.4219C18.9729 25.3698 17.999 27.7292 17.999 30.5C17.999 31.375 18.1188 32.2396 18.3583 33.0938C18.5979 33.9479 18.9365 34.75 19.374 35.5H36.624C37.1031 34.7083 37.4521 33.8854 37.6708 33.0312C37.8896 32.1771 37.999 31.2917 37.999 30.375C37.999 29.625 37.9104 28.8958 37.7333 28.1875C37.5563 27.4792 37.2906 26.7917 36.9365 26.125L38.4365 23.75C39.0615 24.7292 39.5563 25.7708 39.9208 26.875C40.2854 27.9792 40.4781 29.125 40.499 30.3125C40.5198 31.5 40.3844 32.6354 40.0927 33.7188C39.801 34.8021 39.374 35.8333 38.8115 36.8125C38.5823 37.1875 38.2698 37.4792 37.874 37.6875C37.4781 37.8958 37.0615 38 36.624 38H19.374C18.9365 38 18.5198 37.8958 18.124 37.6875C17.7281 37.4792 17.4156 37.1875 17.1865 36.8125C16.6448 35.875 16.2281 34.8802 15.9365 33.8281C15.6448 32.776 15.499 31.6667 15.499 30.5C15.499 28.7708 15.8271 27.151 16.4833 25.6406C17.1396 24.1302 18.0354 22.8073 19.1708 21.6719C20.3063 20.5365 21.6344 19.6406 23.1552 18.9844C24.676 18.3281 26.2906 18 27.999 18Z" fill="#0057C3"/>
</svg>
