<svg width="80" height="80" viewBox="0 0 80 80" fill="none" xmlns="http://www.w3.org/2000/svg">
<rect width="80" height="80" rx="40" fill="#6DFE9C"/>
<path d="M37.8364 47.3239L48.7293 36.431L46.057 33.7375L37.8364 41.9581L33.8158 37.9375L31.1434 40.631L37.8364 47.3239ZM40 55.7207C37.8119 55.7207 35.7631 55.3087 33.8535 54.4847C31.9439 53.6607 30.2828 52.5424 28.8702 51.1298C27.4576 49.7172 26.3393 48.0561 25.5153 46.1465C24.6913 44.2369 24.2793 42.188 24.2793 40C24.2793 37.8119 24.6913 35.7631 25.5153 33.8535C26.3393 31.9439 27.4576 30.2828 28.8702 28.8702C30.2828 27.4576 31.9439 26.3393 33.8535 25.5153C35.7631 24.6913 37.8119 24.2793 40 24.2793C42.188 24.2793 44.2369 24.6913 46.1465 25.5153C48.0561 26.3393 49.7172 27.4576 51.1298 28.8702C52.5424 30.2828 53.6607 31.9439 54.4847 33.8535C55.3087 35.7631 55.7207 37.8119 55.7207 40C55.7207 42.188 55.3087 44.2369 54.4847 46.1465C53.6607 48.0561 52.5424 49.7172 51.1298 51.1298C49.7172 52.5424 48.0561 53.6607 46.1465 54.4847C44.2369 55.3087 42.188 55.7207 40 55.7207ZM40 51.7456C43.2935 51.7456 46.0744 50.6114 48.3429 48.3429C50.6114 46.0744 51.7456 43.2935 51.7456 40C51.7456 36.7065 50.6114 33.9255 48.3429 31.6571C46.0744 29.3886 43.2935 28.2543 40 28.2543C36.7065 28.2543 33.9255 29.3886 31.6571 31.6571C29.3886 33.9255 28.2543 36.7065 28.2543 40C28.2543 43.2935 29.3886 46.0744 31.6571 48.3429C33.9255 50.6114 36.7065 51.7456 40 51.7456Z" fill="#007439"/>
</svg>
