<svg width="56" height="56" viewBox="0 0 56 56" fill="none" xmlns="http://www.w3.org/2000/svg">
<rect width="56" height="56" rx="16" fill="#EFF6FF"/>
<path d="M29.25 26.75V24.25H35.5V26.75H29.25ZM29.25 21.75V19.25H39.25V21.75H29.25ZM23 39.25C21.2708 39.25 19.7969 38.6406 18.5781 37.4219C17.3594 36.2031 16.75 34.7292 16.75 33C16.75 32 16.9688 31.0677 17.4062 30.2031C17.8438 29.3385 18.4583 28.6042 19.25 28V20.5C19.25 19.4583 19.6146 18.5729 20.3438 17.8438C21.0729 17.1146 21.9583 16.75 23 16.75C24.0417 16.75 24.9271 17.1146 25.6562 17.8438C26.3854 18.5729 26.75 19.4583 26.75 20.5V28C27.5417 28.6042 28.1562 29.3385 28.5938 30.2031C29.0312 31.0677 29.25 32 29.25 33C29.25 34.7292 28.6406 36.2031 27.4219 37.4219C26.2031 38.6406 24.7292 39.25 23 39.25ZM19.25 33H26.75C26.75 32.3958 26.6198 31.8333 26.3594 31.3125C26.099 30.7917 25.7292 30.3542 25.25 30L24.25 29.25V20.5C24.25 20.1458 24.1302 19.849 23.8906 19.6094C23.651 19.3698 23.3542 19.25 23 19.25C22.6458 19.25 22.349 19.3698 22.1094 19.6094C21.8698 19.849 21.75 20.1458 21.75 20.5V29.25L20.75 30C20.2708 30.3542 19.901 30.7917 19.6406 31.3125C19.3802 31.8333 19.25 32.3958 19.25 33Z" fill="#0057C3"/>
</svg>
