<svg width="141" height="192" viewBox="0 0 141 192" fill="none" xmlns="http://www.w3.org/2000/svg">
<g opacity="0.4">
<path d="M30.3 134C30.3 130.686 32.9863 128 36.3 128C39.6137 128 42.3 130.686 42.3 134V176H30.3V134Z" fill="#0057C3"/>
<path d="M54.9 86C54.9 82.6863 57.5863 80 60.9 80C64.2137 80 66.9 82.6863 66.9 86V176H54.9V86Z" fill="#0057C3"/>
<path d="M79.5 118C79.5 114.686 82.1863 112 85.5 112C88.8137 112 91.5 114.686 91.5 118V176H79.5V118Z" fill="#0057C3"/>
<path d="M104.1 70C104.1 66.6863 106.786 64 110.1 64C113.414 64 116.1 66.6863 116.1 70V176H104.1V70Z" fill="#0057C3"/>
<path d="M128.7 102C128.7 98.6863 131.386 96 134.7 96C138.014 96 140.7 98.6863 140.7 102V176H128.7V102Z" fill="#0057C3"/>
</g>
</svg>
